<svg width="17" height="17" viewBox="0 0 17 17" fill="none" xmlns="http://www.w3.org/2000/svg">
<g id="SVG" clip-path="url(#clip0_2_528)">
<path id="Vector" d="M16.1969 6.60251C16.3187 6.50564 16.5 6.59626 16.5 6.74939V13.14C16.5 13.9681 15.8281 14.64 15 14.64H2C1.17188 14.64 0.5 13.9681 0.5 13.14V6.75251C0.5 6.59626 0.678125 6.50876 0.803125 6.60564C1.50312 7.14939 2.43125 7.84001 5.61875 10.1556C6.27813 10.6369 7.39062 11.6494 8.5 11.6431C9.61563 11.6525 10.75 10.6181 11.3844 10.1556C14.5719 7.84001 15.4969 7.14626 16.1969 6.60251ZM8.5 10.64C9.225 10.6525 10.2688 9.72751 10.7937 9.34626C14.9406 6.33689 15.2562 6.07439 16.2125 5.32439C16.3937 5.18376 16.5 4.96501 16.5 4.73376V4.14001C16.5 3.31189 15.8281 2.64001 15 2.64001H2C1.17188 2.64001 0.5 3.31189 0.5 4.14001V4.73376C0.5 4.96501 0.60625 5.18064 0.7875 5.32439C1.74375 6.07126 2.05938 6.33689 6.20625 9.34626C6.73125 9.72751 7.775 10.6525 8.5 10.64Z" fill="#CC3900"/>
</g>
<defs>
<clipPath id="clip0_2_528">
<rect width="16" height="16" fill="white" transform="translate(0.5 0.640015)"/>
</clipPath>
</defs>
</svg>
