<svg width="26" height="26" viewBox="0 0 26 26" fill="none" xmlns="http://www.w3.org/2000/svg">
<g id="SVG" clip-path="url(#clip0_2_272)">
<path id="Vector" d="M25.0894 12.5903C25.0894 5.90088 19.6694 0.480957 12.98 0.480957C6.29053 0.480957 0.870605 5.90088 0.870605 12.5903C0.870605 18.6343 5.29883 23.644 11.0879 24.5532V16.0908H8.01172V12.5903H11.0879V9.92236C11.0879 6.8877 12.8945 5.21143 15.6616 5.21143C16.9868 5.21143 18.3726 5.44775 18.3726 5.44775V8.42627H16.8452C15.3413 8.42627 14.8721 9.35986 14.8721 10.3174V12.5903H18.2305L17.6934 16.0908H14.8721V24.5532C20.6611 23.644 25.0894 18.6343 25.0894 12.5903Z" fill="#CC3900"/>
</g>
<defs>
<clipPath id="clip0_2_272">
<rect width="25" height="25" fill="white" transform="translate(0.47998 0.090332)"/>
</clipPath>
</defs>
</svg>
