<svg width="26" height="26" viewBox="0 0 26 26" fill="none" xmlns="http://www.w3.org/2000/svg">
<g id="SVG">
<path id="Vector" d="M12.9849 6.9751C9.87939 6.9751 7.37451 9.47998 7.37451 12.5854C7.37451 15.6909 9.87939 18.1958 12.9849 18.1958C16.0903 18.1958 18.5952 15.6909 18.5952 12.5854C18.5952 9.47998 16.0903 6.9751 12.9849 6.9751ZM12.9849 16.2329C10.978 16.2329 9.3374 14.5972 9.3374 12.5854C9.3374 10.5737 10.9731 8.93799 12.9849 8.93799C14.9966 8.93799 16.6323 10.5737 16.6323 12.5854C16.6323 14.5972 14.9917 16.2329 12.9849 16.2329ZM20.1333 6.74561C20.1333 7.47314 19.5474 8.0542 18.8247 8.0542C18.0972 8.0542 17.5161 7.46826 17.5161 6.74561C17.5161 6.02295 18.1021 5.43701 18.8247 5.43701C19.5474 5.43701 20.1333 6.02295 20.1333 6.74561ZM23.8491 8.07373C23.7661 6.3208 23.3657 4.76807 22.0815 3.48877C20.8022 2.20947 19.2495 1.80908 17.4966 1.72119C15.6899 1.61865 10.2749 1.61865 8.46826 1.72119C6.72021 1.8042 5.16748 2.20459 3.8833 3.48389C2.59912 4.76318 2.20361 6.31592 2.11572 8.06885C2.01318 9.87549 2.01318 15.2905 2.11572 17.0972C2.19873 18.8501 2.59912 20.4028 3.8833 21.6821C5.16748 22.9614 6.71533 23.3618 8.46826 23.4497C10.2749 23.5522 15.6899 23.5522 17.4966 23.4497C19.2495 23.3667 20.8022 22.9663 22.0815 21.6821C23.3608 20.4028 23.7612 18.8501 23.8491 17.0972C23.9517 15.2905 23.9517 9.88037 23.8491 8.07373ZM21.5151 19.0356C21.1343 19.9927 20.397 20.73 19.4351 21.1157C17.9946 21.687 14.5767 21.5552 12.9849 21.5552C11.3931 21.5552 7.97021 21.6821 6.53467 21.1157C5.57764 20.7349 4.84033 19.9976 4.45459 19.0356C3.8833 17.5952 4.01514 14.1772 4.01514 12.5854C4.01514 10.9937 3.88818 7.5708 4.45459 6.13525C4.83545 5.17822 5.57275 4.44092 6.53467 4.05518C7.9751 3.48389 11.3931 3.61572 12.9849 3.61572C14.5767 3.61572 17.9995 3.48877 19.4351 4.05518C20.3921 4.43603 21.1294 5.17334 21.5151 6.13525C22.0864 7.57568 21.9546 10.9937 21.9546 12.5854C21.9546 14.1772 22.0864 17.6001 21.5151 19.0356Z" fill="#CC3900"/>
</g>
</svg>
