<svg width="17" height="17" viewBox="0 0 17 17" fill="none" xmlns="http://www.w3.org/2000/svg">
<g id="SVG" clip-path="url(#clip0_2_522)">
<path id="Vector" d="M12 0.640015H5C4.17188 0.640015 3.5 1.31189 3.5 2.14001V15.14C3.5 15.9681 4.17188 16.64 5 16.64H12C12.8281 16.64 13.5 15.9681 13.5 15.14V2.14001C13.5 1.31189 12.8281 0.640015 12 0.640015ZM8.5 15.64C7.94688 15.64 7.5 15.1931 7.5 14.64C7.5 14.0869 7.94688 13.64 8.5 13.64C9.05312 13.64 9.5 14.0869 9.5 14.64C9.5 15.1931 9.05312 15.64 8.5 15.64ZM12 12.265C12 12.4713 11.8313 12.64 11.625 12.64H5.375C5.16875 12.64 5 12.4713 5 12.265V2.51501C5 2.30876 5.16875 2.14001 5.375 2.14001H11.625C11.8313 2.14001 12 2.30876 12 2.51501V12.265Z" fill="#CC3900"/>
</g>
<defs>
<clipPath id="clip0_2_522">
<rect width="16" height="16" fill="white" transform="translate(0.5 0.640015)"/>
</clipPath>
</defs>
</svg>
