<svg width="26" height="26" viewBox="0 0 26 26" fill="none" xmlns="http://www.w3.org/2000/svg">
<g id="SVG">
<path id="Vector" d="M24.4966 7.57408C24.224 6.5476 23.4207 5.73918 22.4009 5.46483C20.5524 4.96631 13.14 4.96631 13.14 4.96631C13.14 4.96631 5.72769 4.96631 3.87912 5.46483C2.85928 5.73923 2.05607 6.5476 1.78346 7.57408C1.28815 9.43462 1.28815 13.3165 1.28815 13.3165C1.28815 13.3165 1.28815 17.1983 1.78346 19.0589C2.05607 20.0854 2.85928 20.8601 3.87912 21.1345C5.72769 21.633 13.14 21.633 13.14 21.633C13.14 21.633 20.5523 21.633 22.4009 21.1345C23.4207 20.8601 24.224 20.0854 24.4966 19.0589C24.9919 17.1983 24.9919 13.3165 24.9919 13.3165C24.9919 13.3165 24.9919 9.43462 24.4966 7.57408ZM10.7158 16.8409V9.79205L16.911 13.3166L10.7158 16.8409Z" fill="#CC3900"/>
</g>
</svg>
